<?xml version="1.0" standalone="no"?>
<!DOCTYPE svg PUBLIC "-//W3C//DTD SVG 20010904//EN"
 "http://www.w3.org/TR/2001/REC-SVG-20010904/DTD/svg10.dtd">
<svg version="1.0" xmlns="http://www.w3.org/2000/svg"
 width="276.000000pt" height="306.000000pt" viewBox="0 0 276.000000 306.000000"
 preserveAspectRatio="xMidYMid meet">
<metadata>
Created by potrace 1.10, written by Peter Selinger 2001-2011
</metadata>
<g transform="translate(0.000000,306.000000) scale(0.100000,-0.100000)"
fill="#000000" stroke="none">
<path d="M1238 2918 c-27 -22 -31 -66 -8 -98 17 -24 20 -38 14 -75 -3 -25 -10
-48 -15 -51 -13 -7 -11 -61 2 -70 6 -4 9 -31 7 -69 -1 -35 1 -67 5 -71 12 -13
8 -133 -7 -168 -8 -20 -10 -39 -5 -47 5 -8 9 -51 9 -96 0 -45 4 -93 9 -106 7
-18 5 -27 -8 -39 -15 -12 -17 -41 -19 -226 -2 -155 -6 -222 -17 -253 -8 -23
-15 -64 -15 -91 0 -27 -6 -59 -14 -71 -17 -26 -23 -99 -12 -145 6 -24 3 -39
-8 -57 -10 -15 -16 -46 -16 -78 0 -56 -12 -77 -44 -77 -11 0 -36 -6 -55 -12
-32 -11 -54 -25 -156 -100 -55 -40 -145 -142 -145 -164 0 -12 -11 -29 -24 -38
-14 -8 -28 -25 -32 -38 -3 -12 -20 -43 -35 -69 -23 -36 -29 -58 -29 -100 1
-32 7 -62 15 -73 8 -11 15 -28 15 -37 0 -10 18 -31 39 -48 33 -26 48 -31 93
-31 32 0 62 6 74 15 10 8 29 15 40 15 19 0 101 47 141 80 7 6 19 10 28 10 28
0 158 129 209 207 69 107 66 81 71 503 3 212 7 410 10 440 2 30 4 64 3 75 0
11 0 31 0 45 1 14 3 99 6 190 2 91 5 297 5 459 l1 293 28 -7 c15 -4 70 -9 122
-12 52 -3 100 -9 106 -14 7 -5 15 -31 19 -57 4 -26 10 -51 15 -57 7 -9 15
-194 11 -267 -1 -27 -3 -28 -52 -28 -68 0 -115 -28 -123 -74 -10 -53 -1 -67
37 -54 18 6 36 17 40 25 4 7 24 13 43 13 30 0 43 -8 81 -50 45 -50 64 -58 93
-40 12 7 15 34 16 127 2 172 15 375 25 395 5 9 13 69 19 134 10 114 10 118
-12 151 l-23 34 -233 -3 -234 -3 -13 33 c-12 27 -19 32 -48 32 -18 0 -40 -6
-49 -12z m485 -160 c10 -8 17 -31 19 -63 3 -44 1 -50 -18 -53 -26 -4 -74 49
-74 82 0 41 39 59 73 34z m-126 -25 c27 -18 30 -38 7 -47 -30 -12 -118 6 -142
28 -22 19 -22 21 -5 34 22 16 106 7 140 -15z m-304 -58 c1 -5 -6 -11 -15 -13
-11 -2 -18 3 -18 13 0 17 30 18 33 0z m-13 -716 c0 -5 -7 -9 -15 -9 -15 0 -20
12 -9 23 8 8 24 -1 24 -14z m-30 -604 c0 -8 -4 -15 -9 -15 -13 0 -22 16 -14
24 11 11 23 6 23 -9z m-7 -372 c8 -58 -1 -170 -18 -209 -18 -43 -53 -94 -65
-94 -5 0 -6 17 -4 38 5 32 4 34 -7 17 -7 -11 -18 -24 -26 -28 -18 -11 -17 -37
2 -37 45 0 -13 -76 -108 -143 -88 -60 -182 -100 -221 -91 -42 9 -54 20 -61 58
-8 40 17 110 56 159 22 27 28 43 23 59 -5 18 -3 20 15 15 14 -3 22 1 26 13 10
31 133 138 193 169 31 16 81 48 111 70 30 23 60 41 67 41 6 0 14 -17 17 -37z"/>
<path d="M1049 763 c-12 -15 -12 -16 4 -10 10 4 23 7 28 7 5 0 9 5 9 10 0 16
-26 12 -41 -7z"/>
</g>
</svg>
