<?xml version="1.0" standalone="no"?>
<!DOCTYPE svg PUBLIC "-//W3C//DTD SVG 20010904//EN"
 "http://www.w3.org/TR/2001/REC-SVG-20010904/DTD/svg10.dtd">
<svg version="1.0" xmlns="http://www.w3.org/2000/svg"
 width="128.000000pt" height="128.000000pt" viewBox="0 0 128.000000 128.000000"
 preserveAspectRatio="xMidYMid meet">
<metadata>
Created by potrace 1.13, written by Peter Selinger 2001-2015
</metadata>
<g transform="translate(0.000000,128.000000) scale(0.100000,-0.100000)"
fill="#000000" stroke="none">
<path d="M532 1265 c-213 -48 -395 -223 -457 -440 -21 -72 -24 -218 -6 -295
41 -174 165 -331 321 -407 105 -51 171 -66 280 -66 169 0 308 59 430 182 281
283 222 746 -121 953 -35 21 -93 48 -129 59 -85 27 -234 34 -318 14z m288 -61
c181 -51 331 -202 386 -389 27 -92 23 -231 -9 -324 -114 -328 -486 -478 -792
-318 -78 41 -191 154 -232 232 -135 258 -50 574 197 734 132 86 292 109 450
65z"/>
<path d="M700 745 l0 -235 -26 17 c-60 39 -175 9 -182 -49 -8 -70 152 -95 214
-33 24 24 24 26 24 229 l0 205 58 -26 c60 -26 75 -40 67 -60 -3 -7 -8 -20 -11
-28 -3 -8 -1 -15 5 -15 14 0 51 59 51 83 0 28 -42 63 -100 84 -29 10 -59 28
-67 41 -9 12 -19 22 -24 22 -5 0 -9 -105 -9 -235z"/>
</g>
</svg>
